# File created by Blade
# Date/Time:  Thu Jan 22 19:13:14 2015
# Frame Rate: 120.000 fps
#------------------------------------------------------
:FULLY-SPECIFIED
:DEGREES
1834
root -0.379826 23.300280 -4.730489 19.527158 -31.817845 37.116731
RightUpLeg -113.766119 -42.265185 -6.294635
RightLeg 98.789322 -0.000000 -0.000000
RightFoot -33.588966 -6.178464 10.765018
RightToeBase 0.586673 -0.000000 -0.000000
LeftUpLeg -18.253051 23.509156 -2.280180
LeftLeg 4.164997 -0.000000 -0.000000
LeftFoot -8.953459 2.267021 -42.902175
LeftToeBase 6.397818 -0.000000 -0.000000
Spine 8.443798 18.244963 33.001268
RightShoulder -9.091160 -1.010689 -19.556396
RightArm 15.154164 34.027626 59.893164
RightForeArm 33.509682 -0.000000 17.509871
RightHand 26.292345 -0.000000 -9.206244
RightHandThumb1 -24.326973 -0.000000 -32.862282
LeftShoulder -27.531696 5.470241 37.105331
LeftArm -7.457222 -36.696827 -11.927352
LeftForeArm -7.211732 -0.000000 0.327766
LeftHand -3.617651 -0.000000 -3.469276
LeftHandThumb1 -26.253704 0.000000 33.147579
Head -18.067075 18.574241 -1.388416
1835
root -0.379528 23.300969 -4.733162 19.529052 -31.849229 37.117918
RightUpLeg -113.744763 -42.222423 -6.356048
RightLeg 98.787059 -0.000000 -0.000000
RightFoot -33.561605 -6.160532 10.789283
RightToeBase 0.694775 -0.000000 -0.000000
LeftUpLeg -18.255569 23.508904 -2.281468
LeftLeg 4.164625 -0.000000 -0.000000
LeftFoot -8.968639 2.275905 -42.887939
LeftToeBase 6.311636 -0.000000 -0.000000
Spine 8.473301 18.263793 32.995896
RightShoulder -9.046528 -1.027079 -19.584165
RightArm 15.134051 34.042765 59.903569
RightForeArm 33.567274 -0.000000 17.467021
RightHand 26.322385 0.000000 -9.323867
RightHandThumb1 -24.326973 -0.000000 -32.862282
LeftShoulder -27.541593 5.429944 37.096260
LeftArm -7.440993 -36.599444 -11.962271
LeftForeArm -7.234066 -0.000000 0.347129
LeftHand -3.581932 -0.000000 -3.417123
LeftHandThumb1 -26.253704 0.000000 33.147579
Head -18.161060 18.571319 -1.416855
1836
root -0.378536 23.302174 -4.735504 19.548147 -31.892442 37.104353
RightUpLeg -113.756791 -42.151818 -6.351805
RightLeg 98.755512 -0.000000 -0.000000
RightFoot -33.560338 -6.263982 10.747871
RightToeBase 0.691663 -0.000000 -0.000000
LeftUpLeg -18.252743 23.487903 -2.263529
LeftLeg 4.157248 -0.000000 -0.000000
LeftFoot -9.002829 2.300059 -42.912329
LeftToeBase 6.306565 -0.000000 -0.000000
Spine 8.500362 18.298464 32.996565
RightShoulder -9.017223 -1.000859 -19.616560
RightArm 15.100444 34.053027 59.904634
RightForeArm 33.470388 0.000000 17.405853
RightHand 26.314268 -0.000000 -9.472020
RightHandThumb1 -24.326973 -0.000000 -32.862282
LeftShoulder -27.572757 5.411539 37.083785
LeftArm -7.398379 -36.609748 -12.006575
LeftForeArm -7.185365 -0.000000 0.381006
LeftHand -3.583226 0.000000 -3.459536
LeftHandThumb1 -26.253704 0.000000 33.147579
Head -18.234988 18.568834 -1.425385
1837
root -0.376370 23.305292 -4.736591 19.559426 -31.932129 37.123496
RightUpLeg -113.777410 -42.111771 -6.371007
RightLeg 98.725187 -0.000000 -0.000000
RightFoot -33.575860 -6.360159 10.631146
RightToeBase 0.896088 -0.000000 -0.000000
LeftUpLeg -18.280056 23.523017 -2.308225
LeftLeg 4.164390 -0.000000 -0.000000
LeftFoot -8.982867 2.315500 -42.932774
LeftToeBase 6.428188 -0.000000 -0.000000
Spine 8.525233 18.307579 32.971506
RightShoulder -9.077390 -1.155150 -19.652043
RightArm 15.606676 34.668021 60.403805
RightForeArm 32.602957 -0.000000 17.169092
RightHand 26.200424 -0.000000 -9.347705
RightHandThumb1 -24.326973 -0.000000 -32.862282
LeftShoulder -27.630064 5.372124 37.051248
LeftArm -7.358375 -36.598502 -12.018779
LeftForeArm -7.116327 -0.000000 0.405220
LeftHand -3.594299 -0.000000 -3.541863
LeftHandThumb1 -26.253704 0.000000 33.147579
Head -18.331822 18.554792 -1.461741
